<?xml version="1.0" encoding="iso-8859-1"?>
<svg xmlns="http://www.w3.org/2000/svg" xmlns:xlink="http://www.w3.org/1999/xlink" version="1.1" viewBox="0 0 463 463" enable-background="new 0 0 463 463" width="512px" height="512px">
  <g>
    <path d="m439.5,376h-8.5v-128.5c0-21.78-17.72-39.5-39.5-39.5h-8.5v-128.5c0-21.78-17.72-39.5-39.5-39.5h-224c-21.78,0-39.5,17.72-39.5,39.5v128.5h-8.5c-21.78,0-39.5,17.72-39.5,39.5v128.5h-8.5c-12.958,0-23.5,10.542-23.5,23.5s10.542,23.5 23.5,23.5h416c12.958,0 23.5-10.542 23.5-23.5s-10.542-23.5-23.5-23.5zm-320-321h224c13.509,0 24.5,10.99 24.5,24.5 0,9.098-7.402,16.5-16.5,16.5s-16.5-7.402-16.5-16.5c0-4.143-3.358-7.5-7.5-7.5s-7.5,3.357-7.5,7.5c0,9.098-7.402,16.5-16.5,16.5s-16.5-7.402-16.5-16.5c0-4.143-3.358-7.5-7.5-7.5s-7.5,3.357-7.5,7.5c0,9.098-7.402,16.5-16.5,16.5s-16.5-7.402-16.5-16.5c0-4.143-3.358-7.5-7.5-7.5s-7.5,3.357-7.5,7.5c0,9.098-7.402,16.5-16.5,16.5s-16.5-7.402-16.5-16.5c0-4.143-3.358-7.5-7.5-7.5s-7.5,3.357-7.5,7.5c0,9.098-7.402,16.5-16.5,16.5s-16.5-7.402-16.5-16.5c0-4.143-3.358-7.5-7.5-7.5s-7.5,3.357-7.5,7.5c0,9.098-7.402,16.5-16.5,16.5s-16.5-7.402-16.5-16.5c0-13.51 10.991-24.5 24.5-24.5zm-24.5,136h168.5c4.142,0 7.5-3.357 7.5-7.5s-3.358-7.5-7.5-7.5h-168.5v-69.681c4.802,2.965 10.454,4.681 16.5,4.681 9.607,0 18.217-4.328 24-11.131 5.783,6.803 14.393,11.131 24,11.131s18.217-4.328 24-11.131c5.783,6.803 14.393,11.131 24,11.131s18.217-4.328 24-11.131c5.783,6.803 14.393,11.131 24,11.131s18.217-4.328 24-11.131c5.783,6.803 14.393,11.131 24,11.131s18.217-4.328 24-11.131c5.783,6.803 14.393,11.131 24,11.131 6.046,0 11.698-1.716 16.5-4.681v69.681h-24.497c-4.142,0-7.5,3.357-7.5,7.5s3.358,7.5 7.5,7.5h24.497v17h-273v-17zm-23.5,32h320c13.509,0 24.5,10.99 24.5,24.5 0,9.098-7.402,16.5-16.5,16.5s-16.5-7.402-16.5-16.5c0-4.143-3.358-7.5-7.5-7.5s-7.5,3.357-7.5,7.5c0,9.098-7.402,16.5-16.5,16.5s-16.5-7.402-16.5-16.5c0-4.143-3.358-7.5-7.5-7.5s-7.5,3.357-7.5,7.5c0,9.098-7.402,16.5-16.5,16.5s-16.5-7.402-16.5-16.5c0-4.143-3.358-7.5-7.5-7.5s-7.5,3.357-7.5,7.5c0,9.098-7.402,16.5-16.5,16.5s-16.5-7.402-16.5-16.5c0-4.143-3.358-7.5-7.5-7.5s-7.5,3.357-7.5,7.5c0,9.098-7.402,16.5-16.5,16.5s-16.5-7.402-16.5-16.5c0-4.143-3.358-7.5-7.5-7.5s-7.5,3.357-7.5,7.5c0,9.098-7.402,16.5-16.5,16.5s-16.5-7.402-16.5-16.5c0-4.143-3.358-7.5-7.5-7.5s-7.5,3.357-7.5,7.5c0,9.098-7.402,16.5-16.5,16.5s-16.5-7.402-16.5-16.5c0-4.143-3.358-7.5-7.5-7.5s-7.5,3.357-7.5,7.5c0,9.098-7.402,16.5-16.5,16.5s-16.5-7.402-16.5-16.5c0-13.51 10.991-24.5 24.5-24.5zm-24.5,136h264.5c4.142,0 7.5-3.357 7.5-7.5s-3.358-7.5-7.5-7.5h-264.5v-69.681c4.802,2.965 10.454,4.681 16.5,4.681 9.607,0 18.217-4.328 24-11.131 5.783,6.803 14.393,11.131 24,11.131s18.217-4.328 24-11.131c5.783,6.803 14.393,11.131 24,11.131s18.217-4.328 24-11.131c5.783,6.803 14.393,11.131 24,11.131s18.217-4.328 24-11.131c5.783,6.803 14.393,11.131 24,11.131s18.217-4.328 24-11.131c5.783,6.803 14.393,11.131 24,11.131s18.217-4.328 24-11.131c5.783,6.803 14.393,11.131 24,11.131s18.217-4.328 24-11.131c5.783,6.803 14.393,11.131 24,11.131 6.046,0 11.698-1.716 16.5-4.681v69.681h-24.497c-4.142,0-7.5,3.357-7.5,7.5s3.358,7.5 7.5,7.5h24.497v17h-369v-17zm392.5,49h-416c-4.687,0-8.5-3.813-8.5-8.5s3.813-8.5 8.5-8.5h416c4.687,0 8.5,3.813 8.5,8.5s-3.813,8.5-8.5,8.5z" fill="#3e1f00"/>
    <path d="m359.498,344h-15.999c-4.142,0-7.5,3.357-7.5,7.5s3.358,7.5 7.5,7.5h15.999c4.142,0 7.5-3.357 7.5-7.5s-3.358-7.5-7.5-7.5z" fill="#3e1f00"/>
    <path d="m311.498,176h-15.999c-4.142,0-7.5,3.357-7.5,7.5s3.358,7.5 7.5,7.5h15.999c4.142,0 7.5-3.357 7.5-7.5s-3.358-7.5-7.5-7.5z" fill="#3e1f00"/>
    <path d="m207.5,128c-4.142,0-7.5,3.357-7.5,7.5v8c0,4.143 3.358,7.5 7.5,7.5s7.5-3.357 7.5-7.5v-8c0-4.143-3.358-7.5-7.5-7.5z" fill="#3e1f00"/>
    <path d="m255.5,128c-4.142,0-7.5,3.357-7.5,7.5v8c0,4.143 3.358,7.5 7.5,7.5s7.5-3.357 7.5-7.5v-8c0-4.143-3.358-7.5-7.5-7.5z" fill="#3e1f00"/>
    <path d="m303.5,151c4.142,0 7.5-3.357 7.5-7.5v-8c0-4.143-3.358-7.5-7.5-7.5s-7.5,3.357-7.5,7.5v8c0,4.143 3.358,7.5 7.5,7.5z" fill="#3e1f00"/>
    <path d="m351.5,151c4.142,0 7.5-3.357 7.5-7.5v-8c0-4.143-3.358-7.5-7.5-7.5s-7.5,3.357-7.5,7.5v8c0,4.143 3.358,7.5 7.5,7.5z" fill="#3e1f00"/>
    <path d="m111.5,128c-4.142,0-7.5,3.357-7.5,7.5v8c0,4.143 3.358,7.5 7.5,7.5s7.5-3.357 7.5-7.5v-8c0-4.143-3.358-7.5-7.5-7.5z" fill="#3e1f00"/>
    <path d="m159.5,128c-4.142,0-7.5,3.357-7.5,7.5v8c0,4.143 3.358,7.5 7.5,7.5s7.5-3.357 7.5-7.5v-8c0-4.143-3.358-7.5-7.5-7.5z" fill="#3e1f00"/>
    <path d="m207.5,296c-4.142,0-7.5,3.357-7.5,7.5v8c0,4.143 3.358,7.5 7.5,7.5s7.5-3.357 7.5-7.5v-8c0-4.143-3.358-7.5-7.5-7.5z" fill="#3e1f00"/>
    <path d="m255.5,296c-4.142,0-7.5,3.357-7.5,7.5v8c0,4.143 3.358,7.5 7.5,7.5s7.5-3.357 7.5-7.5v-8c0-4.143-3.358-7.5-7.5-7.5z" fill="#3e1f00"/>
    <path d="m303.5,296c-4.142,0-7.5,3.357-7.5,7.5v8c0,4.143 3.358,7.5 7.5,7.5s7.5-3.357 7.5-7.5v-8c0-4.143-3.358-7.5-7.5-7.5z" fill="#3e1f00"/>
    <path d="m351.5,319c4.142,0 7.5-3.357 7.5-7.5v-8c0-4.143-3.358-7.5-7.5-7.5s-7.5,3.357-7.5,7.5v8c0,4.143 3.358,7.5 7.5,7.5z" fill="#3e1f00"/>
    <path d="m399.5,319c4.142,0 7.5-3.357 7.5-7.5v-8c0-4.143-3.358-7.5-7.5-7.5s-7.5,3.357-7.5,7.5v8c0,4.143 3.358,7.5 7.5,7.5z" fill="#3e1f00"/>
    <path d="m63.5,296c-4.142,0-7.5,3.357-7.5,7.5v8c0,4.143 3.358,7.5 7.5,7.5s7.5-3.357 7.5-7.5v-8c0-4.143-3.358-7.5-7.5-7.5z" fill="#3e1f00"/>
    <path d="m111.5,296c-4.142,0-7.5,3.357-7.5,7.5v8c0,4.143 3.358,7.5 7.5,7.5s7.5-3.357 7.5-7.5v-8c0-4.143-3.358-7.5-7.5-7.5z" fill="#3e1f00"/>
    <path d="m159.5,296c-4.142,0-7.5,3.357-7.5,7.5v8c0,4.143 3.358,7.5 7.5,7.5s7.5-3.357 7.5-7.5v-8c0-4.143-3.358-7.5-7.5-7.5z" fill="#3e1f00"/>
  </g>
</svg>
