<?xml version="1.0" encoding="iso-8859-1"?>
<!-- Generator: Adobe Illustrator 17.1.0, SVG Export Plug-In . SVG Version: 6.00 Build 0)  -->
<!DOCTYPE svg PUBLIC "-//W3C//DTD SVG 1.1//EN" "http://www.w3.org/Graphics/SVG/1.1/DTD/svg11.dtd">
<svg xmlns="http://www.w3.org/2000/svg" xmlns:xlink="http://www.w3.org/1999/xlink" version="1.1" id="Capa_1" x="0px" y="0px" viewBox="0 0 511.011 511.011" style="enable-background:new 0 0 511.011 511.011;" xml:space="preserve" width="512px" height="512px">
<g>
	<path d="M411.365,272.149h-9.328c-1.755-7.471-6.188-16.222-12.096-23.758c17.219-9.425,28.924-27.716,28.924-48.692   c0-16.134-4.735-29.901-12.543-41.944c0.138-73.281-62.368-90.743-103.894-102.336c-15.572-4.348-33.147-9.256-35.437-14.886   c-0.007-0.245-0.031-0.487-0.031-0.733c0-0.245,0.666-24.48,24.48-24.48c0.028,0,0.054-0.004,0.082-0.004   c0.138-0.001,0.273-0.012,0.41-0.021c0.117-0.007,0.234-0.012,0.349-0.025c0.129-0.015,0.255-0.038,0.383-0.059   c0.121-0.02,0.243-0.037,0.362-0.063c0.11-0.024,0.217-0.055,0.326-0.084c0.133-0.035,0.266-0.068,0.396-0.11   c0.088-0.029,0.174-0.063,0.261-0.095c0.145-0.053,0.289-0.105,0.43-0.166c0.07-0.031,0.138-0.067,0.207-0.1   c0.151-0.072,0.301-0.144,0.446-0.225c0.06-0.034,0.117-0.072,0.176-0.107c0.148-0.088,0.295-0.177,0.436-0.275   c0.057-0.04,0.111-0.084,0.167-0.125c0.137-0.1,0.272-0.201,0.402-0.31c0.06-0.05,0.115-0.105,0.173-0.157   c0.119-0.107,0.238-0.214,0.35-0.328c0.063-0.064,0.121-0.134,0.182-0.2c0.1-0.109,0.2-0.218,0.294-0.333   c0.064-0.079,0.121-0.162,0.182-0.243c0.083-0.111,0.166-0.22,0.243-0.336c0.059-0.09,0.112-0.184,0.168-0.276   c0.069-0.115,0.139-0.228,0.202-0.346c0.051-0.096,0.095-0.196,0.142-0.295c0.058-0.122,0.117-0.242,0.169-0.367   c0.041-0.099,0.074-0.201,0.111-0.303c0.047-0.131,0.096-0.261,0.136-0.395c0.03-0.1,0.052-0.202,0.078-0.304   c0.036-0.141,0.072-0.281,0.1-0.424c0.02-0.104,0.032-0.21,0.048-0.315c0.021-0.144,0.044-0.288,0.057-0.434   c0.002-0.026,0.008-0.051,0.01-0.077c0.008-0.099,0.005-0.197,0.009-0.295c0.004-0.101,0.015-0.2,0.015-0.302   c0-0.027-0.004-0.053-0.004-0.08c-0.001-0.143-0.012-0.284-0.021-0.425c-0.007-0.11-0.012-0.221-0.024-0.331   c-0.016-0.14-0.04-0.277-0.063-0.415c-0.018-0.109-0.034-0.219-0.057-0.326c-0.028-0.128-0.063-0.254-0.098-0.38   c-0.031-0.113-0.058-0.227-0.094-0.339c-0.037-0.114-0.081-0.225-0.123-0.336c-0.044-0.118-0.086-0.237-0.136-0.352   c-0.044-0.102-0.095-0.199-0.144-0.299c-0.058-0.119-0.114-0.238-0.178-0.354c-0.052-0.094-0.111-0.183-0.167-0.275   c-0.07-0.114-0.137-0.228-0.213-0.338c-0.063-0.091-0.132-0.177-0.198-0.265c-0.078-0.103-0.153-0.207-0.236-0.305   c-0.076-0.09-0.158-0.175-0.237-0.261c-0.082-0.089-0.161-0.179-0.247-0.264c-0.089-0.088-0.185-0.169-0.278-0.253   c-0.085-0.076-0.167-0.153-0.256-0.225c-0.101-0.082-0.207-0.156-0.312-0.233c-0.089-0.065-0.177-0.133-0.269-0.194   c-0.107-0.071-0.22-0.135-0.331-0.201c-0.098-0.058-0.193-0.118-0.294-0.172c-0.109-0.058-0.222-0.108-0.334-0.161   c-0.11-0.052-0.218-0.105-0.331-0.152c-0.106-0.044-0.216-0.08-0.325-0.119c-0.124-0.045-0.248-0.091-0.375-0.129   c-0.103-0.031-0.209-0.054-0.314-0.081c-0.138-0.035-0.275-0.071-0.416-0.098c-0.104-0.02-0.211-0.033-0.317-0.048   c-0.143-0.021-0.286-0.044-0.432-0.057c-0.026-0.002-0.051-0.008-0.077-0.01c-1.135-0.091-28.163-2.143-57.305,4.993   c-40.109,9.823-64.52,32.325-70.593,65.076c-1.783,9.617-1.624,18.656,0.453,27.09c-17.592,4.539-35.504,18.519-49.944,39.209   c-15.414,22.086-23.768,47.774-22.347,68.714c1.381,20.354,11.438,35.108,28.57,43.044c-5.878,7.518-10.285,16.235-12.035,23.681   h-1.282c-2.22,0-4.326,0.983-5.75,2.686c-1.425,1.702-2.023,3.948-1.633,6.133l37.622,210.682   c2.003,11.218,11.729,19.361,23.125,19.361h15.438c0.007,0,0.014,0.001,0.022,0.001c0.004,0,0.008-0.001,0.013-0.001h27.085   c0.003,0,0.007,0,0.01,0c0.003,0,0.006,0,0.009,0h112.18c0.003,0,0.006,0,0.009,0c0.003,0,0.007,0,0.01,0h27.085   c0.004,0,0.008,0.001,0.013,0.001c0.007,0,0.014-0.001,0.022-0.001h15.189c11.396,0,21.121-8.143,23.125-19.361l37.622-210.682   c0.39-2.185-0.208-4.431-1.633-6.133C415.691,273.132,413.585,272.149,411.365,272.149z M298.394,69.866   c36.627,10.225,81.059,22.637,90.928,67.95c-17.332-16.233-39.925-29.082-61.11-41.128c-18.84-10.713-37.049-21.071-48.647-32.386   C285.285,66.205,291.64,67.98,298.394,69.866z M170.172,111.602c4.505,8.061,11.093,15.441,19.765,22.096   c1.362,1.045,2.967,1.551,4.561,1.551c2.251,0,4.479-1.01,5.955-2.935c2.522-3.286,1.902-7.994-1.384-10.516   c-17.441-13.385-23.854-28.845-20.181-48.653c4.737-25.548,23.027-42.986,54.37-51.899c-5.276,4.091-9.952,8.935-13.422,14.665   c-2.146,3.543-1.013,8.155,2.53,10.301c1.215,0.735,2.555,1.085,3.878,1.085c2.537,0,5.013-1.288,6.423-3.616   c4.854-8.016,13.453-13.88,21.955-18.026c-1.827,4.931-2.663,9.885-2.663,14.142c0,0.32,0.025,0.632,0.032,0.949   c-0.058,0.603-0.033,1.223,0.063,1.846c1.957,29.157,34.427,47.622,68.743,67.135c6.092,3.464,12.213,6.946,18.222,10.504   c-10.287-3.351-20.906-6.389-31.438-9.402c-36.37-10.402-70.724-20.228-76.988-39.986c-1.252-3.949-5.469-6.133-9.417-4.883   c-3.948,1.252-6.134,5.468-4.882,9.417c8.699,27.433,46.812,38.333,87.162,49.875c39.519,11.303,80.38,22.991,95.017,49.379   c3.448,7.614,5.392,15.91,5.392,25.067c0,13.598-6.748,25.642-17.064,32.984c1.512-9.576,0.858-35.854-44.36-55.834   c-15.595-6.89-34.526-12.525-54.57-18.49c-6.303-1.876-12.821-3.816-19.223-5.796c-3.955-1.224-8.157,0.991-9.381,4.948   c-1.224,3.958,0.991,8.158,4.948,9.382c6.479,2.004,13.036,3.956,19.377,5.843c19.574,5.826,38.063,11.328,52.786,17.834   c29.688,13.118,37.796,29.488,35.486,40.434c-1.257,5.954-5.302,9.167-8.47,9.167h-29.979c0.466-4.597-0.359-8.95-2.487-13.016   c-10.484-20.033-50.472-26.121-96.774-33.17c-43.902-6.684-93.661-14.259-103.929-34.104c-2.924-5.652-2.393-12.512,1.609-20.933   C143.125,124.899,156.915,114.344,170.172,111.602z M107.267,204.409c-0.845-12.448,2.564-26.432,8.656-39.718   c0.302,0.7,0.625,1.395,0.98,2.08c13.779,26.631,65.233,34.465,114.993,42.041c36.927,5.622,78.781,11.994,85.742,25.296   c0.643,1.229,1.269,3.08,0.591,6.061H155.524C125.542,240.169,108.855,227.803,107.267,204.409z M136.423,253.413   c5.857,1.156,12.231,1.756,19.101,1.756h167.864c0.009,0,0.017,0.001,0.026,0.001c0.007,0,0.014-0.001,0.021-0.001h39.959   c3.966,0,7.832-0.427,11.564-1.221c5.719,6.036,9.516,12.988,11.435,18.201H179.481c-0.003,0-0.007,0-0.01,0H124.48   C126.455,266.782,130.418,259.568,136.423,253.413z M324.021,496.01l16.243-151.597c0.441-4.118-2.54-7.815-6.659-8.256   c-4.105-0.434-7.814,2.54-8.256,6.659L308.935,496.01h-13.09l6.716-128.024c0.217-4.137-2.96-7.666-7.097-7.883   c-4.13-0.213-7.666,2.96-7.883,7.097l-6.757,128.81h-13.865v-88.439c0-4.142-3.358-7.5-7.5-7.5s-7.5,3.358-7.5,7.5v88.439h-13.615   l-10.956-208.861h24.571v88.442c0,4.142,3.358,7.5,7.5,7.5s7.5-3.358,7.5-7.5v-88.442h24.821l-2.521,48.069   c-0.217,4.137,2.96,7.666,7.097,7.883c0.134,0.007,0.267,0.01,0.399,0.01c3.962,0,7.273-3.104,7.483-7.107l2.563-48.855h24.512   l-2.538,23.686c-0.441,4.119,2.54,7.815,6.659,8.256c0.271,0.029,0.541,0.043,0.808,0.043c3.783,0,7.036-2.854,7.448-6.702   l2.709-25.283h22.239L336.353,496.01H324.021z M210.234,496.01l-22.378-208.861h24.511l10.956,208.861H210.234z M182.816,496.01   l-32.285-208.861h22.239l22.378,208.861H182.816z M152.559,489.012l-36.047-201.863h18.841l32.285,208.861h-6.721   C156.798,496.01,153.283,493.067,152.559,489.012z M366.36,489.012c-0.724,4.055-4.239,6.998-8.358,6.998h-6.471l32.285-208.861   h11.508c0.003,0,0.007,0,0.01,0c0.003,0,0.007,0,0.01,0h7.063L366.36,489.012z" fill="#3e1f00"/>
	<path d="M216.271,149.229c5.068,2.369,10.464,4.647,16.496,6.966c0.885,0.34,1.794,0.501,2.689,0.501   c3.014,0,5.856-1.83,7.002-4.811c1.486-3.866-0.443-8.205-4.31-9.691c-5.701-2.192-10.78-4.335-15.527-6.554   c-3.752-1.754-8.217-0.133-9.97,3.619C210.898,143.012,212.519,147.476,216.271,149.229z" fill="#3e1f00"/>
</g>
<g>
</g>
<g>
</g>
<g>
</g>
<g>
</g>
<g>
</g>
<g>
</g>
<g>
</g>
<g>
</g>
<g>
</g>
<g>
</g>
<g>
</g>
<g>
</g>
<g>
</g>
<g>
</g>
<g>
</g>
</svg>
