<?xml version="1.0" encoding="iso-8859-1"?>
<!-- Generator: Adobe Illustrator 16.0.0, SVG Export Plug-In . SVG Version: 6.00 Build 0)  -->
<!DOCTYPE svg PUBLIC "-//W3C//DTD SVG 1.1//EN" "http://www.w3.org/Graphics/SVG/1.1/DTD/svg11.dtd">
<svg xmlns="http://www.w3.org/2000/svg" xmlns:xlink="http://www.w3.org/1999/xlink" version="1.1" id="Capa_1" x="0px" y="0px" width="512px" height="512px" viewBox="0 0 212.528 212.528" style="enable-background:new 0 0 212.528 212.528;" xml:space="preserve">
<g>
	<g>
		<path d="M212.528,109.233c0-5.927-2.972-11.723-7.95-15.505c-4.785-3.635-10.881-5.002-17.001-3.88    c-11.944-17.478-31.962-45.058-80.75-45.417c-0.056-0.003-0.111-0.008-0.167-0.008c-0.133,0-0.263,0.003-0.396,0.004    c-0.133-0.001-0.263-0.004-0.396-0.004c-0.056,0-0.112,0.005-0.167,0.008c-48.788,0.359-68.805,27.938-80.75,45.417    c-6.119-1.125-12.216,0.246-17.001,3.88C2.972,97.511,0,103.307,0,109.233c0,9.899,8.058,15.771,17.22,17.289l16.101,27.697    c0.532,0.914,1.51,1.478,2.568,1.478h4.461c0.032,0.285,0.106,0.571,0.226,0.849l4.224,9.768c0.47,1.087,1.541,1.791,2.726,1.791    h115.364c1.069,0,2.056-0.573,2.584-1.503l5.543-9.768c0.205-0.361,0.326-0.747,0.369-1.137h5.889    c1.058,0,2.035-0.562,2.566-1.477l16.176-27.824C204.883,124.697,212.528,118.877,212.528,109.233z M175.564,149.757h-18.428    c-1.641,0-2.971,1.33-2.971,2.97c0,1.641,1.33,2.971,2.971,2.971h7.695l-3.671,6.467H49.477l-2.797-6.467h86.63    c1.641,0,2.971-1.33,2.971-2.971c0-1.64-1.329-2.97-2.971-2.97H37.597l-13.303-22.884c14.067-0.555,23.414-6.186,27.643-9.399    c3.365,3.654,11.083,9.447,26.197,9.447c15.391,0,24.266-5.625,28.129-8.899c3.618,3.055,12.577,8.899,28.131,8.899    c15.115,0,22.832-5.793,26.195-9.446c4.291,3.262,13.85,9.012,28.266,9.421L175.564,149.757z M190.489,120.981    c-18.197,0-28.149-9.776-28.24-9.868c-0.665-0.677-1.612-0.998-2.55-0.857c-0.938,0.138-1.755,0.715-2.197,1.553    c-0.048,0.092-5.045,9.173-23.109,9.173c-14.467,0-22.139-5.528-24.767-7.905c-0.21-0.19-1.144-1.215-1.506-1.506    c-1.28-1.026-3.15-0.82-4.175,0.459c-0.072,0.09-7.388,8.952-25.813,8.952c-17.789,0-22.916-8.827-23.11-9.173    c-0.442-0.839-1.259-1.416-2.197-1.553c-0.938-0.139-1.886,0.182-2.55,0.857c-0.097,0.099-9.899,9.868-28.24,9.868    c-5.568,0-16.099-2.454-16.099-11.748c0-4.081,2.095-8.109,5.603-10.775c3.899-2.962,8.844-3.815,13.923-2.401    c1.226,0.34,2.533-0.137,3.25-1.188l0.244-0.359c11.955-17.531,30.002-43.996,77.308-44.145    c47.306,0.148,65.352,26.613,77.303,44.144l0.245,0.359c0.717,1.051,2.023,1.528,3.25,1.188    c5.078-1.414,10.022-0.561,13.923,2.401c3.509,2.666,5.604,6.694,5.604,10.775C206.588,118.527,196.059,120.981,190.489,120.981z" fill="#3e1f00"/>
		<path d="M106.264,61.645c-5.881,0-8.514,9.712-8.514,19.338c0,9.625,2.633,19.337,8.514,19.337c5.88,0,8.514-9.712,8.514-19.337    C114.778,71.356,112.145,61.645,106.264,61.645z M106.264,94.011c-0.998-1.461-2.574-5.937-2.574-13.028    c0-7.091,1.576-11.567,2.574-13.029c0.998,1.462,2.574,5.938,2.574,13.029C108.838,88.074,107.262,92.549,106.264,94.011z" fill="#3e1f00"/>
		<path d="M80.47,64.16c-0.76-0.431-1.609-0.649-2.524-0.649c-5.088,0-10.947,7.151-14.418,13.275    c-2.311,4.078-3.955,8.26-4.627,11.775c-1.117,5.838,0.742,8.25,2.499,9.246c0.76,0.43,1.609,0.649,2.524,0.649    c5.09,0,10.947-7.15,14.417-13.273c2.312-4.078,3.955-8.26,4.628-11.777C84.086,67.566,82.227,65.155,80.47,64.16z M73.173,82.253    c-3.496,6.17-7.074,9.286-8.663,10.065c-0.147-1.764,0.689-6.435,4.185-12.604c3.501-6.178,7.084-9.295,8.664-10.07    C77.507,71.407,76.673,76.08,73.173,82.253z" fill="#3e1f00"/>
		<path d="M148.422,76.785c-3.471-6.124-9.328-13.275-14.418-13.275c-0.914,0-1.765,0.218-2.525,0.649    c-5.115,2.901-2.616,12.648,2.131,21.021c3.469,6.123,9.326,13.273,14.417,13.274h0.001c0.915,0,1.765-0.218,2.523-0.648    c1.81-1.024,3.698-3.53,2.42-9.646C152.253,84.733,150.639,80.694,148.422,76.785z M147.43,92.312    c-1.594-0.787-5.164-3.904-8.653-10.061c-3.497-6.169-4.333-10.84-4.187-12.604c1.59,0.78,5.168,3.897,8.664,10.066    c1.922,3.389,3.307,6.821,3.9,9.663C147.451,90.79,147.479,91.744,147.43,92.312z" fill="#3e1f00"/>
	</g>
</g>
<g>
</g>
<g>
</g>
<g>
</g>
<g>
</g>
<g>
</g>
<g>
</g>
<g>
</g>
<g>
</g>
<g>
</g>
<g>
</g>
<g>
</g>
<g>
</g>
<g>
</g>
<g>
</g>
<g>
</g>
</svg>
